<?xml version="1.0" standalone="no"?>
<!DOCTYPE svg PUBLIC "-//W3C//DTD SVG 20010904//EN"
 "http://www.w3.org/TR/2001/REC-SVG-20010904/DTD/svg10.dtd">
<svg version="1.0" xmlns="http://www.w3.org/2000/svg"
 width="939.000000pt" height="505.000000pt" viewBox="0 0 939.000000 505.000000"
 preserveAspectRatio="xMidYMid meet">

<g transform="translate(0.000000,505.000000) scale(0.100000,-0.100000)"
fill="#000000" stroke="none">
<path d="M4670 4421 l0 -321 70 0 c378 0 859 -157 1243 -406 313 -204 622
-506 830 -814 205 -303 365 -692 416 -1015 11 -64 51 -433 51 -462 0 -10 70
-13 314 -13 l314 0 1 108 c1 59 -3 139 -9 177 -63 431 -119 649 -244 955 -321
783 -914 1422 -1651 1780 -148 72 -354 153 -495 193 -204 59 -532 118 -742
133 l-98 7 0 -322z"/>
<path d="M4672 3474 l3 -319 76 -6 c297 -24 700 -208 971 -444 215 -187 406
-465 496 -723 53 -150 83 -305 106 -537 3 -27 5 -51 5 -52 1 -2 143 -3 316 -3
l315 0 0 84 c0 176 -81 551 -166 766 -187 471 -507 870 -920 1146 -328 219
-729 361 -1132 399 l-72 7 2 -318z"/>
<path d="M4670 2516 l0 -324 53 -12 c183 -43 313 -115 424 -234 110 -116 197
-298 209 -429 3 -34 7 -77 10 -94 l5 -33 319 0 320 0 0 89 c0 237 -167 622
-375 861 -186 215 -514 410 -810 481 -44 10 -97 19 -117 19 l-38 0 0 -324z"/>
<path d="M4495 2060 c-173 -37 -305 -155 -355 -317 -78 -253 77 -521 338 -583
80 -19 193 -8 276 25 97 40 184 123 234 223 37 76 37 77 37 201 0 123 -1 128
-34 196 -38 78 -123 171 -186 203 -99 49 -224 71 -310 52z m186 -62 c13 -18
26 -42 29 -53 3 -11 22 -28 43 -38 20 -10 37 -24 37 -30 0 -7 -15 -31 -34 -54
-43 -54 -71 -151 -58 -196 6 -18 13 -58 15 -90 5 -48 3 -58 -9 -53 -9 4 -19
-7 -29 -31 -8 -19 -15 -41 -15 -47 1 -17 67 -45 79 -33 7 7 15 6 26 -3 11 -9
15 -31 15 -76 0 -67 -12 -84 -60 -84 -11 0 -23 -7 -26 -15 -4 -8 -11 -15 -16
-15 -9 0 -7 40 5 103 1 5 -6 14 -16 20 -15 10 -22 7 -42 -17 -23 -28 -23 -29
-34 -7 -13 24 -41 29 -41 7 0 -8 -7 -17 -16 -20 -11 -4 -14 -13 -10 -31 7 -26
0 -31 -22 -17 -9 6 -11 23 -7 57 6 46 4 50 -33 89 -51 52 -62 75 -62 125 0 22
-4 43 -10 46 -5 3 -10 17 -10 31 0 21 -5 24 -33 24 -22 0 -41 8 -53 21 -13 15
-26 19 -45 15 -26 -5 -26 -4 -32 67 -3 39 -5 72 -3 74 1 2 16 5 32 9 37 7 92
-38 90 -75 -2 -35 19 -36 34 -2 13 31 15 32 94 16 10 -2 30 5 45 16 21 15 26
27 26 55 -2 34 -1 35 34 32 30 -3 36 0 36 17 1 24 34 65 52 65 16 0 16 12 -1
78 -8 28 -11 52 -7 52 4 0 18 -15 32 -32z"/>
<path d="M6861 1202 c-58 -29 -88 -87 -67 -132 5 -13 -16 -15 -161 -15 -124 0
-167 -3 -170 -12 -3 -8 5 -13 21 -13 31 0 31 -2 10 -42 -11 -22 -15 -47 -11
-82 4 -40 11 -55 37 -79 28 -25 38 -28 74 -24 24 3 48 14 58 26 23 30 28 26
28 -19 0 -27 -5 -43 -15 -46 -24 -10 -18 -34 8 -30 12 3 36 5 52 6 27 1 28 2
13 14 -16 11 -18 31 -18 145 l0 131 40 0 40 0 0 -135 c0 -117 -2 -135 -17
-144 -14 -8 -6 -10 35 -11 28 0 52 5 52 10 0 6 -4 10 -10 10 -6 0 -10 52 -10
135 l0 135 45 0 c104 0 158 -75 104 -144 -17 -21 -29 -26 -65 -26 -24 0 -44
-2 -44 -5 0 -2 10 -15 23 -29 12 -13 34 -38 48 -55 22 -25 34 -31 67 -31 23 0
45 6 52 15 16 19 5 34 -12 17 -17 -17 -23 -15 -63 19 -38 34 -44 49 -19 49 23
0 84 64 84 89 0 29 -26 77 -47 90 -13 7 26 10 135 11 l152 0 0 -30 c0 -33 -6
-36 -34 -15 -11 8 -40 15 -64 15 -36 0 -49 -5 -72 -30 -74 -79 -28 -200 77
-200 21 0 49 7 61 16 30 21 39 11 19 -20 -16 -23 -15 -24 11 -27 48 -7 189 6
170 15 -16 7 -18 24 -18 143 l0 135 57 -4 c46 -4 61 -10 80 -32 29 -34 30 -75
2 -110 -17 -21 -29 -26 -65 -26 -24 0 -44 -4 -44 -10 0 -5 4 -10 10 -10 5 0
23 -20 40 -45 21 -30 41 -47 63 -53 38 -10 87 4 87 24 0 11 -4 12 -19 4 -27
-14 -26 -14 -66 21 -38 34 -44 49 -19 49 23 0 84 64 84 89 0 29 -26 77 -47 90
-14 8 -8 10 30 11 35 0 47 4 47 15 0 13 -40 15 -297 15 l-298 0 -30 58 c-47
90 -135 125 -214 84z m118 -27 c17 -8 38 -34 52 -62 12 -27 26 -50 30 -53 9
-6 -200 -1 -218 5 -27 9 -3 105 29 118 26 11 80 7 107 -8z m-299 -214 c0 -64
-2 -72 -31 -100 -44 -45 -88 -41 -114 10 -20 38 -19 61 6 114 l21 45 59 0 59
0 0 -69z m730 -66 c0 -112 -3 -137 -15 -141 -8 -4 -22 -1 -30 6 -12 10 -15 39
-15 141 l0 129 30 0 30 0 0 -135z m-149 75 c24 0 49 -42 49 -83 0 -54 -33 -90
-82 -90 -63 0 -101 86 -62 141 18 26 52 43 72 36 8 -2 18 -4 23 -4z"/>
<path d="M1740 1191 c0 -5 11 -12 24 -15 13 -3 52 -30 87 -58 l63 -53 -94 -5
c-104 -5 -126 -23 -35 -28 l55 -3 0 -49 c0 -48 -1 -50 -28 -50 -61 0 -96 -86
-52 -130 20 -20 65 -26 86 -12 19 12 34 49 34 81 0 29 3 31 35 31 24 0 35 5
35 15 0 10 -11 15 -35 15 l-35 0 0 50 0 50 45 0 45 0 0 -124 c0 -118 -1 -126
-22 -140 -21 -15 -20 -16 37 -16 52 1 58 2 43 14 -16 11 -18 31 -18 140 l0
126 53 0 c95 0 146 -75 94 -136 -22 -25 -32 -29 -71 -27 -25 1 -46 0 -46 -2 0
-2 24 -28 54 -59 47 -50 58 -56 93 -56 24 0 46 6 53 15 18 21 6 29 -19 13 -19
-12 -25 -9 -63 30 -33 32 -38 42 -24 42 30 0 74 32 87 62 14 34 -2 80 -35 103
-19 14 -16 15 42 15 l62 0 0 -126 c0 -109 -2 -129 -17 -140 -16 -12 -10 -13
42 -13 50 0 57 2 44 12 -14 10 -17 37 -20 140 -4 126 -4 127 19 127 13 0 22 6
22 15 0 13 -29 15 -198 15 l-197 0 -89 70 c-70 55 -97 70 -123 70 -18 0 -33
-4 -33 -9z m100 -329 c0 -42 -21 -79 -38 -68 -17 10 -24 63 -12 85 6 12 20 21
30 21 16 0 20 -7 20 -38z"/>
<path d="M2853 1180 c-44 -23 -69 -65 -58 -99 6 -21 4 -21 -164 -21 -145 0
-171 -2 -171 -15 0 -9 9 -15 25 -15 29 0 29 0 10 -36 -60 -116 59 -238 154
-158 l31 26 0 -38 c0 -21 -7 -46 -17 -56 -15 -17 -14 -18 35 -18 46 0 70 12
42 22 -5 2 -11 58 -13 131 l-3 127 43 0 43 0 0 -122 c0 -99 -3 -125 -17 -140
-15 -17 -14 -18 37 -18 50 0 52 1 38 18 -12 13 -15 46 -16 140 l-1 122 58 0
c49 0 65 -4 90 -26 43 -36 43 -82 -1 -119 -27 -23 -38 -26 -72 -21 l-40 7 35
-37 c71 -77 81 -84 115 -84 43 0 64 9 64 26 0 11 -4 12 -19 4 -11 -5 -22 -10
-25 -10 -9 0 -76 62 -76 70 0 5 13 11 30 15 37 8 70 49 70 86 0 15 -12 41 -26
58 l-26 31 149 0 148 0 1 -30 c2 -34 -2 -36 -27 -14 -10 9 -36 17 -58 18 -74
2 -121 -45 -121 -120 0 -28 8 -44 34 -70 28 -28 41 -34 78 -34 24 0 54 7 66
16 30 21 35 15 17 -19 l-14 -27 107 0 c91 1 104 3 90 14 -16 11 -18 31 -18
141 l0 127 62 -4 c51 -4 65 -9 85 -32 30 -35 29 -68 -1 -103 -20 -23 -32 -28
-70 -27 -25 0 -46 0 -46 -2 0 -1 24 -27 54 -58 47 -50 58 -56 93 -56 24 0 46
6 53 15 18 21 6 29 -19 13 -19 -12 -25 -9 -63 30 -32 31 -38 42 -25 42 32 0
74 29 87 60 15 36 0 82 -34 105 -18 13 -1 15 164 15 l184 0 -29 -30 c-16 -16
-26 -32 -24 -34 2 -3 54 13 114 34 61 22 116 40 123 40 6 0 12 4 12 8 0 4 -53
23 -117 42 -65 18 -125 36 -133 39 -9 3 -4 -10 13 -32 l28 -37 -438 0 -438 0
-16 39 c-35 84 -160 125 -246 81z m144 -20 c18 -10 41 -37 53 -60 l20 -40
-110 0 c-106 0 -111 1 -119 23 -11 28 12 75 42 87 37 15 80 11 114 -10z m-317
-196 c0 -59 -3 -68 -29 -95 -36 -36 -73 -37 -106 -4 -31 30 -32 65 -4 122 l21
43 59 0 59 0 0 -66z m757 -61 c-2 -104 -5 -128 -19 -136 -12 -8 -21 -7 -32 2
-13 11 -16 36 -16 137 l0 124 35 0 34 0 -2 -127z m-142 58 c28 -16 31 -23 30
-68 -2 -59 -7 -68 -42 -80 -42 -14 -90 2 -108 37 -22 43 -19 68 14 101 34 34
64 37 106 10z"/>
<path d="M5310 1045 c0 -12 14 -15 69 -15 63 0 71 -2 90 -26 30 -38 27 -89 -5
-121 -21 -21 -32 -25 -65 -20 -21 3 -39 3 -39 0 0 -6 25 -35 77 -90 32 -34 67
-42 104 -23 29 16 23 30 -11 24 -25 -5 -35 -1 -60 26 -33 36 -38 50 -15 50 25
0 62 29 74 59 14 32 2 73 -30 107 l-19 20 70 2 70 3 0 -70 c0 -61 -3 -70 -20
-76 -11 -3 -29 -4 -39 0 -19 6 -39 -10 -27 -22 3 -3 23 -5 46 -5 l40 1 0 -46
c0 -29 -6 -53 -17 -65 -15 -17 -14 -18 35 -18 29 0 52 5 52 10 0 6 -4 10 -10
10 -6 0 -10 53 -10 139 l0 139 60 1 60 0 0 -55 c0 -47 -3 -54 -19 -54 -27 0
-61 -47 -61 -84 0 -45 25 -76 60 -76 37 0 58 29 66 92 6 47 8 48 40 48 l34 0
0 -70 c0 -55 -3 -71 -17 -79 -10 -5 -15 -12 -11 -16 3 -3 -5 -17 -18 -30 -32
-32 -31 -70 2 -100 22 -20 37 -25 80 -25 30 0 54 5 54 10 0 6 -17 10 -38 10
-45 0 -72 24 -72 63 0 29 24 47 64 47 30 0 35 23 11 47 -13 12 -15 39 -13 142
l3 126 155 1 c85 0 161 -2 168 -4 6 -2 12 -13 12 -23 0 -16 -8 -19 -45 -19
-105 0 -164 -84 -120 -170 14 -27 14 -30 -4 -40 -27 -14 -47 -13 -65 6 -22 21
-20 51 4 71 27 23 25 33 -4 33 -29 0 -44 33 -26 55 17 21 30 19 30 -4 0 -27
19 -36 37 -18 22 22 1 57 -35 57 -54 0 -94 -69 -58 -99 9 -8 12 -26 8 -60 -4
-42 -1 -50 19 -65 31 -22 61 -20 92 4 25 20 28 20 56 5 35 -17 84 -20 112 -5
22 12 25 0 8 -32 -9 -17 -8 -19 8 -16 30 5 58 74 47 117 -7 29 -14 37 -36 39
-26 3 -26 2 -15 -28 11 -28 10 -33 -8 -47 -28 -21 -85 -10 -112 22 -34 39 -30
80 11 121 30 30 40 34 85 34 33 0 52 4 52 13 1 6 2 21 3 32 1 13 9 21 24 23
12 2 22 8 22 13 0 5 -212 9 -535 9 -469 0 -535 -2 -535 -15z m598 -62 l3 -53
-38 0 -38 0 2 52 c1 29 2 54 2 56 1 2 16 2 34 0 31 -3 32 -4 35 -55z m-120
-135 c-2 -28 -8 -53 -15 -55 -17 -6 -27 60 -14 86 20 37 32 24 29 -31z"/>
<path d="M5322 403 l3 -98 1290 0 1290 0 0 95 0 95 -1293 3 -1293 2 3 -97z"/>
<path d="M1316 462 c-3 -4 11 -9 31 -9 25 -1 32 2 22 8 -18 11 -46 12 -53 1z"/>
<path d="M3775 453 l-20 -16 20 8 c11 4 34 11 50 15 l30 8 -30 1 c-16 0 -39
-7 -50 -16z"/>
<path d="M1406 421 c-10 -4 23 -6 75 -4 127 5 144 11 34 11 -49 0 -99 -3 -109
-7z"/>
<path d="M1698 423 c12 -2 32 -2 45 0 12 2 2 4 -23 4 -25 0 -35 -2 -22 -4z"/>
<path d="M1978 423 c89 -2 235 -2 325 0 89 1 16 3 -163 3 -179 0 -252 -2 -162
-3z"/>
<path d="M2538 423 c34 -2 90 -2 125 0 34 2 6 3 -63 3 -69 0 -97 -1 -62 -3z"/>
<path d="M2873 423 c48 -2 125 -2 170 0 45 1 6 3 -88 3 -93 0 -130 -2 -82 -3z"/>
<path d="M3318 423 c23 -2 61 -2 85 0 23 2 4 4 -43 4 -47 0 -66 -2 -42 -4z"/>
<path d="M3558 423 c23 -2 61 -2 85 0 23 2 4 4 -43 4 -47 0 -66 -2 -42 -4z"/>
<path d="M1321 404 c0 -11 3 -14 6 -6 3 7 2 16 -1 19 -3 4 -6 -2 -5 -13z"/>
<path d="M1320 320 c0 -5 5 -10 11 -10 5 0 7 5 4 10 -3 6 -8 10 -11 10 -2 0
-4 -4 -4 -10z"/>
<path d="M2648 323 c7 -3 16 -2 19 1 4 3 -2 6 -13 5 -11 0 -14 -3 -6 -6z"/>
<path d="M3015 320 l-30 -8 27 -1 c15 0 30 4 33 9 3 6 5 9 3 9 -2 -1 -16 -5
-33 -9z"/>
<path d="M3080 320 c0 -5 5 -10 11 -10 5 0 7 5 4 10 -3 6 -8 10 -11 10 -2 0
-4 -4 -4 -10z"/>
<path d="M3208 313 c7 -3 16 -2 19 1 4 3 -2 6 -13 5 -11 0 -14 -3 -6 -6z"/>
</g>
</svg>
